<?xml version="1.0" encoding="UTF-8" standalone="no"?>
<!-- Created with Inkscape (http://www.inkscape.org/) -->

<svg
   width="137.25673mm"
   height="27.173536mm"
   viewBox="0 0 137.25673 27.173536"
   version="1.1"
   id="svg1"
   inkscape:version="1.4.2 (ebf0e940, 2025-05-08)"
   sodipodi:docname="Fliiisenleger.svg"
   xmlns:inkscape="http://www.inkscape.org/namespaces/inkscape"
   xmlns:sodipodi="http://sodipodi.sourceforge.net/DTD/sodipodi-0.dtd"
   xmlns="http://www.w3.org/2000/svg"
   xmlns:svg="http://www.w3.org/2000/svg">
  <sodipodi:namedview
     id="namedview1"
     pagecolor="#ffffff"
     bordercolor="#000000"
     borderopacity="0.25"
     inkscape:showpageshadow="2"
     inkscape:pageopacity="0.0"
     inkscape:pagecheckerboard="0"
     inkscape:deskcolor="#d1d1d1"
     inkscape:document-units="mm"
     inkscape:zoom="1.7977413"
     inkscape:cx="203.5888"
     inkscape:cy="196.63563"
     inkscape:window-width="1520"
     inkscape:window-height="916"
     inkscape:window-x="0"
     inkscape:window-y="108"
     inkscape:window-maximized="0"
     inkscape:current-layer="layer1" />
  <defs
     id="defs1">
    <rect
       x="65.637917"
       y="117.92575"
       width="661.94171"
       height="160.20103"
       id="rect1" />
  </defs>
  <g
     inkscape:label="Layer 1"
     inkscape:groupmode="layer"
     id="layer1"
     transform="translate(-54.641109,-36.167975)">
    <path
       style="font-size:112px;font-family:UnifrakturMaguntia;-inkscape-font-specification:'UnifrakturMaguntia, Normal';font-feature-settings:'cv81';text-align:end;white-space:pre;stroke-linecap:round;stroke-linejoin:round;paint-order:markers stroke fill;fill:#999999"
       d="m 689.35352,171.80724 q 0,-0.49219 0.875,-1.69532 4.15625,-5.79687 6.5625,-10.55468 0.49218,-0.98438 1.25781,-0.98438 0.82031,0 1.25781,0.92969 0.4375,0.92969 1.75,1.58594 5.46875,2.78906 6.94531,8.09375 0.16407,0.60156 0.4375,0.60156 0.27344,0 0.60157,-0.38281 l 8.96875,-10.28125 q 0.49218,-0.54688 0.92968,-0.54688 0.4375,0 0.82032,0.71094 l 5.19531,9.89844 q 0.32812,0.60156 0.32812,1.20312 0,0.60156 -0.49218,1.14844 l -5.90625,6.78125 q -0.49219,0.54687 -0.92969,0.54687 -0.4375,0 -0.82031,-0.71093 l -4.26563,-8.09375 q -0.27344,-0.49219 -0.60156,-0.49219 -0.27344,0 -0.60156,0.38281 l -2.24219,2.57031 q -0.92969,1.03907 -0.92969,2.35157 v 27.72656 q 0,3.9375 3.77344,3.9375 1.58594,0 3.9375,-2.67969 l 2.02344,-2.29687 q 0.65625,-0.76563 1.25781,-0.76563 1.25781,0 1.25781,1.20313 0,0.4375 -0.65625,1.20312 l -2.02344,2.29688 q -5.57812,6.28906 -8.36718,11.97656 -0.38282,0.76562 -0.98438,0.76562 -0.60156,0 -1.3125,-0.76562 -7,-7.49219 -13.28906,-8.25781 -0.92969,-0.10938 -0.92969,-0.76563 0,-0.65625 0.60156,-0.98437 3.60938,-1.96875 3.60938,-6.28907 v -27.125 q 0,-3.77343 -3.11719,-3.77343 -1.09375,0 -2.02344,1.3125 -0.92968,1.3125 -1.91406,1.3125 -0.98437,0 -0.98437,-1.09375 z"
       transform="scale(0.26458333)"
       id="path23"
       inkscape:label="r" />
    <path
       style="font-size:112px;font-family:UnifrakturMaguntia;-inkscape-font-specification:'UnifrakturMaguntia, Normal';font-feature-settings:'cv81';text-align:end;white-space:pre;stroke-linecap:round;stroke-linejoin:round;paint-order:markers stroke fill;fill:#999999"
       d="m 650.58008,187.22911 q 0,-17.9375 14.60156,-24.28125 7.65625,-3.33594 11.15625,-3.33594 0.38281,0 0.54688,0.38282 l 7.76562,19.52343 q 0.16406,0.32813 0.16406,0.65625 0,0.71094 -0.92968,1.09375 l -21.32813,8.47657 q -0.98437,0.38281 -0.98437,1.09375 0,0.27343 0.0547,0.54687 0.71094,4.10156 2.24219,7 5.03125,9.40625 12.03125,9.40625 2.84375,0 7.21875,-2.1875 0.76563,-0.38281 1.09375,-0.38281 1.14844,0 1.14844,1.3125 0,0.60156 -0.98438,1.14844 -8.09375,4.53906 -15.91406,9.84375 -1.03906,0.71093 -1.64062,0.71093 -0.60157,0 -0.98438,-1.3125 -0.32812,-1.3125 -1.58594,-2.13281 -13.67187,-8.85937 -13.67187,-27.5625 z m 10.33594,-5.25 q 0,3.71875 0.21875,4.92188 0.10937,0.49218 0.38281,0.49218 0.32812,0 0.71094,-0.16406 l 10.60937,-4.21094 q 0.76563,-0.32812 0.76563,-0.98437 0,-0.27344 -0.16407,-0.65625 l -6.23437,-15.69531 q -0.21875,-0.54688 -0.54688,-0.54688 -0.27343,0 -0.38281,0.0547 -5.35937,2.02344 -5.35937,16.78906 z"
       transform="scale(0.26458333)"
       id="path22"
       inkscape:label="e3" />
    <path
       style="font-size:112px;font-family:UnifrakturMaguntia;-inkscape-font-specification:'UnifrakturMaguntia, Normal';font-feature-settings:'cv81';text-align:end;white-space:pre;stroke-linecap:round;stroke-linejoin:round;paint-order:markers stroke fill;fill:#999999"
       d="m 608.4707,212.93224 q -8.58593,-8.03907 -8.58593,-21.16407 0,-13.125 11.15625,-21.10937 6.72656,-4.8125 10.33593,-11.21094 0.49219,-0.875 1.14844,-0.875 1.09375,0 1.58594,0.92969 2.625,5.03125 17.55469,10.88281 1.42187,0.49219 1.42187,1.14844 0,0.60156 -1.09375,1.42187 -5.63281,4.375 -5.63281,12.35938 0,7.92969 4.42969,19.19531 2.73437,7 2.73437,12.63281 0,14.21875 -16.35156,19.6875 -4.26563,1.42188 -8.64063,1.42188 -11.375,0 -15.47656,-5.19531 -2.07812,-2.625 -2.07812,-5.03125 0,-2.35157 1.42187,-3.60938 1.58594,-1.42187 3.66406,-1.42187 4.53907,0 8.14844,4.8125 5.30469,7.05468 10.0625,7.05468 1.09375,0 2.13281,-0.38281 6.89063,-2.51562 6.89063,-11.92187 0,-6.61719 -3.44531,-15.36719 -0.27344,-0.71094 -0.71094,-0.71094 -0.38281,0 -0.71094,0.27344 l -14.32812,10.55469 q -1.25782,0.92968 -1.96875,0.92968 -0.65625,0 -0.65625,-0.98437 0,-1.53125 -3.00782,-4.32031 z m 1.58594,-26.90625 q 0,12.19531 6.61719,19.41406 2.40625,2.625 4.10156,2.625 1.69531,0 2.73438,-0.76563 l 4.04687,-3.00781 q 0.65625,-0.49219 0.65625,-0.875 0,-0.4375 -0.16406,-0.875 -2.13281,-6.28906 -2.13281,-11.70312 0,-5.41407 5.41406,-11.75782 0.49219,-0.54687 0.49219,-1.03906 0,-0.49219 -0.875,-0.71094 -7,-2.07812 -12.41407,-7.54687 -0.60156,-0.60156 -1.3125,-0.60156 -0.71093,0 -1.25781,0.71093 -5.90625,7.76563 -5.90625,16.13282 z"
       transform="scale(0.26458333)"
       id="path21"
       inkscape:label="g" />
    <path
       style="font-size:112px;font-family:UnifrakturMaguntia;-inkscape-font-specification:'UnifrakturMaguntia, Normal';font-feature-settings:'cv81';text-align:end;white-space:pre;stroke-linecap:round;stroke-linejoin:round;paint-order:markers stroke fill;fill:#999999"
       d="m 558.21289,187.22911 q 0,-17.9375 14.60156,-24.28125 7.65625,-3.33594 11.15625,-3.33594 0.38282,0 0.54688,0.38282 l 7.76562,19.52343 q 0.16407,0.32813 0.16407,0.65625 0,0.71094 -0.92969,1.09375 l -21.32813,8.47657 q -0.98437,0.38281 -0.98437,1.09375 0,0.27343 0.0547,0.54687 0.71093,4.10156 2.24218,7 5.03125,9.40625 12.03125,9.40625 2.84375,0 7.21875,-2.1875 0.76563,-0.38281 1.09375,-0.38281 1.14844,0 1.14844,1.3125 0,0.60156 -0.98437,1.14844 -8.09375,4.53906 -15.91407,9.84375 -1.03906,0.71093 -1.64062,0.71093 -0.60156,0 -0.98438,-1.3125 -0.32812,-1.3125 -1.58593,-2.13281 -13.67188,-8.85937 -13.67188,-27.5625 z m 10.33594,-5.25 q 0,3.71875 0.21875,4.92188 0.10937,0.49218 0.38281,0.49218 0.32813,0 0.71094,-0.16406 l 10.60937,-4.21094 q 0.76563,-0.32812 0.76563,-0.98437 0,-0.27344 -0.16406,-0.65625 l -6.23438,-15.69531 q -0.21875,-0.54688 -0.54687,-0.54688 -0.27344,0 -0.38282,0.0547 -5.35937,2.02344 -5.35937,16.78906 z"
       transform="scale(0.26458333)"
       id="path20"
       inkscape:label="e2" />
    <path
       style="font-size:112px;font-family:UnifrakturMaguntia;-inkscape-font-specification:'UnifrakturMaguntia, Normal';font-feature-settings:'cv81';text-align:end;white-space:pre;stroke-linecap:round;stroke-linejoin:round;paint-order:markers stroke fill;fill:#999999"
       d="m 526.98633,143.36974 q 0,-1.03907 1.14844,-1.03907 1.25781,0 5.63281,6.72657 0.60156,0.92968 1.14844,0.92968 0.60156,0 1.09375,-0.82031 7.32812,-11.21094 20.125,-11.21094 2.07812,0 2.07812,1.25782 0,1.20312 -2.07812,1.20312 -11.10157,0 -11.10157,13.89063 v 48.28906 q 0,3.9375 3.77344,3.9375 1.42188,0 3.9375,-2.67969 0.71094,-0.76562 1.25781,-0.76562 1.25782,0 1.25782,1.14843 0,0.49219 -0.65625,1.25782 -5.6875,6.67187 -8.36719,11.97656 -0.38281,0.76562 -0.98438,0.76562 -0.60156,0 -1.3125,-0.76562 -7,-7.49219 -13.28906,-8.25781 -0.92969,-0.10938 -0.92969,-0.76563 0,-0.65625 0.60157,-0.98437 3.60937,-1.96875 3.60937,-6.28907 v -39.15625 q 0,-10.11718 -6.34375,-17.17187 -0.60156,-0.60156 -0.60156,-1.47656 z"
       transform="scale(0.26458333)"
       id="path19"
       inkscape:label="l2" />
    <path
       style="font-size:112px;font-family:UnifrakturMaguntia;-inkscape-font-specification:'UnifrakturMaguntia, Normal';font-feature-settings:'cv81';text-align:end;white-space:pre;stroke-linecap:round;stroke-linejoin:round;paint-order:markers stroke fill;fill:#999999"
       d="m 473.11914,171.80724 q 0,-0.49219 0.875,-1.69532 4.21094,-5.79687 6.5625,-10.55468 0.49219,-0.98438 1.25781,-0.98438 0.82032,0 1.25782,0.92969 0.4375,0.92969 1.75,1.58594 5.46875,2.73437 7,8.14843 0.27343,0.76563 0.60156,0.76563 0.32812,0 0.65625,-0.32813 l 11.42969,-10.66406 q 0.49218,-0.4375 0.875,-0.4375 0.38281,0 0.71093,0.4375 5.46875,6.28906 12.35938,9.13281 1.47656,0.60157 1.47656,1.20313 0,0.60156 -1.25781,1.20312 -2.46094,1.25782 -2.46094,4.48438 v 27.72656 q 0,3.77344 3.11719,3.77344 1.09375,0 2.02344,-1.3125 0.92968,-1.3125 1.91406,-1.3125 0.98437,0 0.98437,1.09375 0,0.49219 -0.875,1.69531 -4.15625,5.79688 -6.5625,10.55469 -0.49218,0.98437 -1.3125,0.98437 -0.76562,0 -1.20312,-0.92968 -0.4375,-0.92969 -1.75,-1.58594 -7.4375,-3.71875 -7.4375,-11.97656 v -29.96875 q 0,-0.76563 -0.54688,-1.14844 -3.39062,-2.29688 -5.14062,-4.48438 -0.21875,-0.27343 -0.54688,-0.27343 -0.27343,0 -0.54687,0.27343 l -5.14063,4.8125 q -0.92968,0.875 -0.92968,2.02344 v 25.375 q 0,3.82813 3.28125,6.17969 0.60156,0.4375 0.60156,0.92969 0,0.4375 -0.71094,0.92968 -4.48437,3.22657 -7.60156,8.85938 -0.54688,0.98437 -1.14844,0.98437 -0.54687,0 -1.09375,-0.98437 -3.22656,-5.85156 -7.60156,-8.85938 -0.71094,-0.49218 -0.71094,-0.92968 0,-0.49219 0.60156,-0.92969 3.28125,-2.29688 3.28125,-6.17969 v -26.30469 q 0,-3.77343 -3.17187,-3.77343 -1.09375,0 -2.02344,1.3125 -0.92969,1.3125 -1.91406,1.3125 -0.92969,0 -0.92969,-1.09375 z"
       transform="scale(0.26458333)"
       id="path18"
       inkscape:label="n" />
    <path
       style="font-size:112px;font-family:UnifrakturMaguntia;-inkscape-font-specification:'UnifrakturMaguntia, Normal';font-feature-settings:'cv81';text-align:end;white-space:pre;stroke-linecap:round;stroke-linejoin:round;paint-order:markers stroke fill;fill:#999999"
       d="m 434.3457,187.22911 q 0,-17.9375 14.60157,-24.28125 7.65625,-3.33594 11.15625,-3.33594 0.38281,0 0.54687,0.38282 l 7.76563,19.52343 q 0.16406,0.32813 0.16406,0.65625 0,0.71094 -0.92969,1.09375 l -21.32812,8.47657 q -0.98438,0.38281 -0.98438,1.09375 0,0.27343 0.0547,0.54687 0.71094,4.10156 2.24219,7 5.03125,9.40625 12.03125,9.40625 2.84375,0 7.21875,-2.1875 0.76562,-0.38281 1.09375,-0.38281 1.14843,0 1.14843,1.3125 0,0.60156 -0.98437,1.14844 -8.09375,4.53906 -15.91406,9.84375 -1.03907,0.71093 -1.64063,0.71093 -0.60156,0 -0.98437,-1.3125 -0.32813,-1.3125 -1.58594,-2.13281 -13.67188,-8.85937 -13.67188,-27.5625 z m 10.33594,-5.25 q 0,3.71875 0.21875,4.92188 0.10938,0.49218 0.38281,0.49218 0.32813,0 0.71094,-0.16406 l 10.60938,-4.21094 q 0.76562,-0.32812 0.76562,-0.98437 0,-0.27344 -0.16406,-0.65625 l -6.23438,-15.69531 q -0.21875,-0.54688 -0.54687,-0.54688 -0.27344,0 -0.38281,0.0547 -5.35938,2.02344 -5.35938,16.78906 z"
       transform="scale(0.26458333)"
       id="path17"
       inkscape:label="e1" />
    <path
       style="font-size:112px;font-family:UnifrakturMaguntia;-inkscape-font-specification:'UnifrakturMaguntia, Normal';font-feature-settings:'cv81';text-align:end;white-space:pre;stroke-linecap:round;stroke-linejoin:round;paint-order:markers stroke fill"
       d="m 406.29102,170.71349 q -1.75,0 -1.75,-0.92969 0,-0.98438 1.36718,-1.47656 6.94532,-2.51563 6.94532,-16.24219 0,-9.07813 3.60937,-12.30469 1.96875,-1.80469 4.86719,-1.80469 2.95312,0 6.23437,2.02344 3.33594,2.02344 5.46875,2.02344 2.13282,0 2.95313,-2.46094 0.54687,-1.58594 1.47656,-1.58594 1.03906,0 1.03906,1.14844 0,0.60156 -0.21875,1.25781 -3.71875,11.04688 -10.44531,11.04688 -2.78906,0 -5.6875,-1.64063 -2.84375,-1.69531 -4.32031,-1.69531 -2.51563,0 -2.51563,3.99219 0,6.23437 4.97657,9.95312 5.03125,3.71875 5.03125,9.89844 0,17.39063 -5.52344,65.625 -0.21875,1.85938 -1.09375,1.85938 -0.875,0 -1.09375,-1.85938 -5.52344,-48.23437 -5.52344,-65.625 0,-1.20312 -1.14844,-1.20312 z"
       transform="scale(0.26458333)"
       id="path16"
       inkscape:label="f" />
    <g
       id="g26"
       inkscape:label="i3">
      <path
         style="font-size:112px;font-family:UnifrakturMaguntia;-inkscape-font-specification:'UnifrakturMaguntia, Normal';font-feature-settings:'cv81';text-align:end;white-space:pre;stroke-linecap:round;stroke-linejoin:round;paint-order:markers stroke fill"
         d="m 377.52539,172.57286 q 0,-0.4375 0.32813,-0.92969 l 8.42187,-12.35937 q 0.49219,-0.71094 0.98438,-0.71094 0.49218,0 0.92968,0.60156 4.375,5.90625 8.09375,7.82032 3.39063,1.69531 3.39063,2.29687 0,0.54688 -0.82031,0.875 -3.55469,1.42188 -3.55469,6.28906 v 26.30469 q 0,3.77344 3.17187,3.77344 1.09375,0 2.02344,-1.3125 0.92969,-1.3125 1.85938,-1.3125 0.98437,0 0.98437,1.09375 0,0.49219 -0.875,1.69531 -4.21094,5.79688 -6.5625,10.55469 -0.49219,0.98437 -1.3125,0.98437 -0.76562,0 -1.20312,-0.92968 -0.4375,-0.92969 -1.75,-1.58594 -7.4375,-3.71875 -7.4375,-11.97656 v -29.53125 q 0,-0.76563 -0.4375,-1.14844 -0.92969,-0.82031 -1.64063,-1.75 -0.21875,-0.32813 -0.54687,-0.32813 -0.27344,0 -0.60157,0.4375 l -1.03906,1.53125 q -0.54687,0.82032 -1.09375,0.82032 -1.3125,0 -1.3125,-1.20313 z"
         transform="scale(0.26458333)"
         id="path14" />
      <path
         style="font-size:112px;font-family:UnifrakturMaguntia;-inkscape-font-specification:'UnifrakturMaguntia, Normal';font-feature-settings:'cv81';text-align:end;white-space:pre;stroke-linecap:round;stroke-linejoin:round;paint-order:markers stroke fill"
         d="m 384.19727,145.77599 q 0,-3.9375 2.40625,-5.63282 2.40625,-1.69531 5.03125,-1.69531 5.57812,0 5.57812,4.92188 0,3.60937 -3.5,6.72656 -3.44531,3.0625 -5.57812,3.0625 -1.91407,0 -2.95313,-2.84375 -0.98437,-2.89844 -0.98437,-4.53906 z"
         transform="scale(0.26458333)"
         id="path13" />
    </g>
    <g
       id="g24"
       inkscape:label="i2">
      <path
         style="font-size:112px;font-family:UnifrakturMaguntia;-inkscape-font-specification:'UnifrakturMaguntia, Normal';font-feature-settings:'cv81';text-align:end;white-space:pre;stroke-linecap:round;stroke-linejoin:round;paint-order:markers stroke fill"
         d="m 348.70508,172.57286 q 0,-0.4375 0.32812,-0.92969 l 8.42188,-12.35937 q 0.49219,-0.71094 0.98437,-0.71094 0.49219,0 0.92969,0.60156 4.375,5.90625 8.09375,7.82032 3.39063,1.69531 3.39063,2.29687 0,0.54688 -0.82032,0.875 -3.55468,1.42188 -3.55468,6.28906 v 26.30469 q 0,3.77344 3.17187,3.77344 1.09375,0 2.02344,-1.3125 0.92969,-1.3125 1.85937,-1.3125 0.98438,0 0.98438,1.09375 0,0.49219 -0.875,1.69531 -4.21094,5.79688 -6.5625,10.55469 -0.49219,0.98437 -1.3125,0.98437 -0.76563,0 -1.20313,-0.92968 -0.4375,-0.92969 -1.75,-1.58594 -7.4375,-3.71875 -7.4375,-11.97656 v -29.53125 q 0,-0.76563 -0.4375,-1.14844 -0.92968,-0.82031 -1.64062,-1.75 -0.21875,-0.32813 -0.54688,-0.32813 -0.27343,0 -0.60156,0.4375 l -1.03906,1.53125 q -0.54688,0.82032 -1.09375,0.82032 -1.3125,0 -1.3125,-1.20313 z"
         transform="scale(0.26458333)"
         id="path11" />
      <path
         style="font-size:112px;font-family:UnifrakturMaguntia;-inkscape-font-specification:'UnifrakturMaguntia, Normal';font-feature-settings:'cv81';text-align:end;white-space:pre;stroke-linecap:round;stroke-linejoin:round;paint-order:markers stroke fill"
         d="m 355.37695,145.77599 q 0,-3.9375 2.40625,-5.63282 2.40625,-1.69531 5.03125,-1.69531 5.57813,0 5.57813,4.92188 0,3.60937 -3.5,6.72656 -3.44531,3.0625 -5.57813,3.0625 -1.91406,0 -2.95312,-2.84375 -0.98438,-2.89844 -0.98438,-4.53906 z"
         transform="scale(0.26458333)"
         id="path10" />
    </g>
    <g
       id="g23"
       inkscape:label="i1">
      <path
         style="font-size:112px;font-family:UnifrakturMaguntia;-inkscape-font-specification:'UnifrakturMaguntia, Normal';font-feature-settings:'cv81';text-align:end;white-space:pre;stroke-linecap:round;stroke-linejoin:round;paint-order:markers stroke fill"
         d="m 319.88477,172.57286 q 0,-0.4375 0.32812,-0.92969 l 8.42188,-12.35937 q 0.49218,-0.71094 0.98437,-0.71094 0.49219,0 0.92969,0.60156 4.375,5.90625 8.09375,7.82032 3.39062,1.69531 3.39062,2.29687 0,0.54688 -0.82031,0.875 -3.55469,1.42188 -3.55469,6.28906 v 26.30469 q 0,3.77344 3.17188,3.77344 1.09375,0 2.02344,-1.3125 0.92968,-1.3125 1.85937,-1.3125 0.98438,0 0.98438,1.09375 0,0.49219 -0.875,1.69531 -4.21094,5.79688 -6.5625,10.55469 -0.49219,0.98437 -1.3125,0.98437 -0.76563,0 -1.20313,-0.92968 -0.4375,-0.92969 -1.75,-1.58594 -7.4375,-3.71875 -7.4375,-11.97656 v -29.53125 q 0,-0.76563 -0.4375,-1.14844 -0.92969,-0.82031 -1.64062,-1.75 -0.21875,-0.32813 -0.54688,-0.32813 -0.27344,0 -0.60156,0.4375 l -1.03906,1.53125 q -0.54688,0.82032 -1.09375,0.82032 -1.3125,0 -1.3125,-1.20313 z"
         transform="scale(0.26458333)"
         id="path8" />
      <path
         style="font-size:112px;font-family:UnifrakturMaguntia;-inkscape-font-specification:'UnifrakturMaguntia, Normal';font-feature-settings:'cv81';text-align:end;white-space:pre;stroke-linecap:round;stroke-linejoin:round;paint-order:markers stroke fill"
         d="m 326.55664,145.77599 q 0,-3.9375 2.40625,-5.63282 2.40625,-1.69531 5.03125,-1.69531 5.57813,0 5.57813,4.92188 0,3.60937 -3.5,6.72656 -3.44532,3.0625 -5.57813,3.0625 -1.91406,0 -2.95312,-2.84375 -0.98438,-2.89844 -0.98438,-4.53906 z"
         transform="scale(0.26458333)"
         id="path7" />
    </g>
    <path
       style="font-size:112px;font-family:UnifrakturMaguntia;-inkscape-font-specification:'UnifrakturMaguntia, Normal';font-feature-settings:'cv81';text-align:end;white-space:pre;stroke-linecap:round;stroke-linejoin:round;paint-order:markers stroke fill;fill:#b3b3b3"
       d="m 288.54883,143.36974 q 0,-1.03907 1.14844,-1.03907 1.25781,0 5.63281,6.72657 0.60156,0.92968 1.14844,0.92968 0.60156,0 1.09375,-0.82031 7.32812,-11.21094 20.125,-11.21094 2.07812,0 2.07812,1.25782 0,1.20312 -2.07812,1.20312 -11.10157,0 -11.10157,13.89063 v 48.28906 q 0,3.9375 3.77344,3.9375 1.42188,0 3.9375,-2.67969 0.71094,-0.76562 1.25781,-0.76562 1.25782,0 1.25782,1.14843 0,0.49219 -0.65625,1.25782 -5.6875,6.67187 -8.36719,11.97656 -0.38281,0.76562 -0.98438,0.76562 -0.60156,0 -1.3125,-0.76562 -7,-7.49219 -13.28906,-8.25781 -0.92969,-0.10938 -0.92969,-0.76563 0,-0.65625 0.60157,-0.98437 3.60937,-1.96875 3.60937,-6.28907 v -39.15625 q 0,-10.11718 -6.34375,-17.17187 -0.60156,-0.60156 -0.60156,-1.47656 z"
       transform="scale(0.26458333)"
       id="path5"
       inkscape:label="l2" />
    <g
       id="g25"
       style="fill:#b3b3b3"
       inkscape:label="F">
      <path
         style="font-size:112px;font-family:UnifrakturMaguntia;-inkscape-font-specification:'UnifrakturMaguntia, Normal';font-feature-settings:'cv81';text-align:end;white-space:pre;stroke-linecap:round;stroke-linejoin:round;paint-order:markers stroke fill;fill:#b3b3b3"
         d="m 215.81445,198.2213 q -1.85937,-0.16406 -1.85937,-1.58594 0,-1.42187 1.47656,-1.42187 3.71875,0 8.09375,1.36718 8.85938,2.78907 8.85938,10.0625 0,2.67969 -1.42188,6.50782 -1.42187,3.82812 -1.42187,7.16406 0,3.99219 2.35156,6.45312 3.28125,3.39063 8.3125,3.39063 9.07812,0 13.89062,-5.96094 3.44532,-4.375 3.44532,-11.92187 0,-10.9375 -12.46875,-25.97657 -6.01563,-7.27343 -6.01563,-13.83593 0,-9.13282 10.99219,-16.40625 0.92969,-0.60157 1.58594,-0.60157 1.25781,0 1.25781,1.47657 0,0.76562 -1.09375,1.64062 -2.29688,1.80469 -2.29688,4.70313 0,5.35937 7.875,14.54687 1.53125,1.80469 3.55469,4.48438 0.49219,0.60156 0.92969,0.60156 0.49219,0 0.98437,-0.60156 l 9.84375,-11.97657 q 0.54688,-0.65625 1.09375,-0.65625 0.54688,0 1.03907,0.4375 l 9.07812,7.76563 q 0.49219,0.4375 0.49219,0.92969 0,0.49218 -0.4375,1.03906 l -7.4375,9.07812 q -0.54688,0.65625 -1.09375,0.65625 -0.54688,0 -0.98438,-0.38281 l -6.72656,-5.74219 q -0.4375,-0.38281 -0.98437,-0.38281 -0.54688,0 -0.98438,0.54688 l -1.09375,1.36718 q -0.60156,0.71094 -0.60156,1.36719 0,0.65625 0.32812,1.20313 5.6875,9.46093 5.6875,18.92187 0,10.17188 -4.97656,16.95313 -7.21875,9.78906 -24.88281,9.78906 -12.63281,0 -19.41406,-6.67188 -4.8125,-4.75781 -4.8125,-11.64843 0,-3.88282 1.25781,-7.65625 1.25781,-3.77344 1.25781,-5.63282 0,-3.11718 -2.67969,-3.39062 z"
         transform="scale(0.26458333)"
         id="path4" />
      <path
         style="font-size:112px;font-family:UnifrakturMaguntia;-inkscape-font-specification:'UnifrakturMaguntia, Normal';font-feature-settings:'cv81';text-align:end;white-space:pre;stroke-linecap:round;stroke-linejoin:round;paint-order:markers stroke fill;fill:#b3b3b3"
         d="m 213.02539,184.76817 q -6.50781,-6.01562 -6.50781,-17.77343 0,-11.75782 9.46094,-21 9.51562,-9.29688 25.8125,-9.29688 9.02343,0 24.39062,7.21875 8.09375,3.82813 12.41406,3.82813 1.80469,0 2.84375,-0.65625 1.09375,-0.65625 1.85938,-0.65625 1.3125,0 1.3125,1.42187 0,0.92969 -1.25781,1.64063 -10.66407,6.01562 -15.80469,11.15625 -0.49219,0.49218 -1.20313,0.49218 -0.65625,0 -1.25781,-0.4375 -16.95312,-11.8125 -32.8125,-11.8125 -9.51562,0 -15.14844,6.45313 -5.57812,6.45312 -5.57812,13.89062 0,7.38282 4.75781,12.74219 4.8125,5.35938 11.59375,5.35938 6.78125,0 9.84375,-1.75 0.65625,-0.38282 1.09375,-0.38282 1.64063,0 1.64063,1.47657 0,0.65625 -1.09375,1.42187 -3.9375,2.625 -11.92188,2.625 -7.92969,0 -14.4375,-5.96094 z"
         transform="scale(0.26458333)"
         id="text1" />
    </g>
  </g>
</svg>
